<svg xmlns="http://www.w3.org/2000/svg" version="1.1" xmlns:xlink="http://www.w3.org/1999/xlink" xmlns:svgjs="http://svgjs.dev/svgjs" width="1024px" height="1024px"><svg xmlns="http://www.w3.org/2000/svg" xmlns:xlink="http://www.w3.org/1999/xlink" width="1024px" height="1024px">
<path fill-rule="evenodd" stroke="rgb(0, 0, 0)" stroke-width="0px" stroke-linecap="butt" stroke-linejoin="miter" fill="rgb(0, 43, 54)" d="M-0.000,-0.000 L1024.000,-0.000 L1024.000,1024.000 L-0.000,1024.000 L-0.000,-0.000 Z"></path>
<path fill-rule="evenodd" stroke="rgb(0, 0, 0)" stroke-width="0px" stroke-linecap="butt" stroke-linejoin="miter" fill="rgb(253, 246, 227)" d="M926.000,1024.000 ZM726.159,442.890 C725.308,455.146 724.264,467.845 722.1000,481.000 C702.581,693.543 702.1000,855.000 702.1000,855.000 L638.1000,855.1000 C638.1000,855.1000 636.029,637.832 651.160,477.369 C617.461,494.754 580.338,516.350 539.948,543.161 C515.324,670.021 536.000,810.1000 536.000,810.1000 C536.000,810.1000 522.317,822.535 500.000,823.000 C477.683,823.465 466.000,807.000 466.000,807.000 C466.000,807.000 466.379,690.806 471.704,591.303 C464.878,596.397 457.979,601.623 450.1000,607.000 C441.975,613.953 433.307,620.684 424.968,627.211 C422.683,741.632 421.1000,785.1000 421.1000,785.1000 L359.1000,785.1000 C359.1000,785.1000 361.386,739.549 363.181,676.723 C331.912,702.474 307.412,723.911 288.265,741.753 C282.105,788.839 277.1000,819.000 277.1000,819.000 L213.000,836.000 C213.000,836.000 213.137,835.292 213.395,833.955 L175.000,846.000 L153.1000,826.000 C153.1000,826.000 173.196,780.917 235.405,714.233 C246.491,651.020 257.947,580.043 259.1000,546.000 C264.164,476.959 262.175,251.881 251.1000,215.1000 L284.000,217.1000 C284.000,217.1000 326.153,437.419 310.000,569.1000 C306.522,598.544 303.060,626.334 299.765,652.379 C319.160,635.522 340.938,617.953 365.344,599.917 C367.823,510.425 370.363,412.984 370.1000,367.1000 C372.334,273.863 367.1000,145.1000 367.1000,145.1000 L394.1000,145.1000 C394.1000,145.1000 432.756,254.877 428.000,479.1000 C427.407,508.077 426.868,533.908 426.380,557.620 C442.129,547.372 458.738,537.039 476.240,526.663 C478.585,501.371 481.464,480.304 484.1000,466.1000 C503.113,398.847 522.680,260.716 523.1000,204.1000 L568.1000,206.1000 C568.1000,206.1000 575.895,357.326 552.625,484.048 C590.493,463.991 624.694,447.358 655.523,433.562 C669.248,284.727 661.000,175.000 661.000,175.000 L707.000,173.1000 C707.000,173.1000 734.517,245.407 728.293,403.707 C855.526,356.743 901.1000,369.1000 901.1000,369.1000 L883.1000,405.1000 C883.1000,405.1000 828.850,401.753 726.159,442.890 ZM-0.000,-0.000 Z"></path>
</svg><style>@media (prefers-color-scheme: light) { :root { filter: none; } }
@media (prefers-color-scheme: dark) { :root { filter: none; } }
</style></svg>